<mxfile host="app.diagrams.net" modified="2024-01-22T12:16:14.101Z" agent="Mozilla/5.0 (Windows NT 10.0; Win64; x64; rv:109.0) Gecko/20100101 Firefox/115.0" etag="pmUq0iKJ4wBrQYsrdlMQ" version="22.1.21" type="device">
  <diagram name="Seite-1" id="K-c9dldpyswSGQUAL_24">
    <mxGraphModel dx="1434" dy="774" grid="1" gridSize="10" guides="1" tooltips="1" connect="1" arrows="1" fold="1" page="1" pageScale="1" pageWidth="827" pageHeight="1169" math="0" shadow="0">
      <root>
        <mxCell id="0" />
        <mxCell id="1" parent="0" />
        <mxCell id="0nILQemL-Gzf1Pnsl0-f-10" style="edgeStyle=orthogonalEdgeStyle;rounded=0;orthogonalLoop=1;jettySize=auto;html=1;exitX=1;exitY=1;exitDx=0;exitDy=0;entryX=0;entryY=0.5;entryDx=0;entryDy=0;" edge="1" parent="1" source="0nILQemL-Gzf1Pnsl0-f-1" target="0nILQemL-Gzf1Pnsl0-f-9">
          <mxGeometry relative="1" as="geometry" />
        </mxCell>
        <mxCell id="0nILQemL-Gzf1Pnsl0-f-1" value="otel-collector" style="rounded=1;whiteSpace=wrap;html=1;" vertex="1" parent="1">
          <mxGeometry x="354" y="220" width="120" height="60" as="geometry" />
        </mxCell>
        <mxCell id="0nILQemL-Gzf1Pnsl0-f-7" style="edgeStyle=orthogonalEdgeStyle;rounded=0;orthogonalLoop=1;jettySize=auto;html=1;exitX=1;exitY=0.5;exitDx=0;exitDy=0;entryX=0;entryY=0.5;entryDx=0;entryDy=0;" edge="1" parent="1">
          <mxGeometry relative="1" as="geometry">
            <mxPoint x="197" y="370" as="sourcePoint" />
            <mxPoint x="351" y="250" as="targetPoint" />
            <Array as="points">
              <mxPoint x="277" y="370" />
              <mxPoint x="277" y="250" />
            </Array>
          </mxGeometry>
        </mxCell>
        <mxCell id="0nILQemL-Gzf1Pnsl0-f-2" value="admin" style="rounded=1;whiteSpace=wrap;html=1;" vertex="1" parent="1">
          <mxGeometry x="80" y="340" width="120" height="60" as="geometry" />
        </mxCell>
        <mxCell id="0nILQemL-Gzf1Pnsl0-f-5" style="edgeStyle=orthogonalEdgeStyle;rounded=0;orthogonalLoop=1;jettySize=auto;html=1;exitX=1;exitY=0.5;exitDx=0;exitDy=0;entryX=0;entryY=0.5;entryDx=0;entryDy=0;" edge="1" parent="1" source="0nILQemL-Gzf1Pnsl0-f-3" target="0nILQemL-Gzf1Pnsl0-f-1">
          <mxGeometry relative="1" as="geometry" />
        </mxCell>
        <mxCell id="0nILQemL-Gzf1Pnsl0-f-3" value="&lt;div&gt;order&lt;/div&gt;" style="rounded=1;whiteSpace=wrap;html=1;" vertex="1" parent="1">
          <mxGeometry x="80" y="100" width="120" height="60" as="geometry" />
        </mxCell>
        <mxCell id="0nILQemL-Gzf1Pnsl0-f-6" style="edgeStyle=orthogonalEdgeStyle;rounded=0;orthogonalLoop=1;jettySize=auto;html=1;exitX=1;exitY=0.5;exitDx=0;exitDy=0;entryX=0;entryY=0.5;entryDx=0;entryDy=0;" edge="1" parent="1" source="0nILQemL-Gzf1Pnsl0-f-4" target="0nILQemL-Gzf1Pnsl0-f-1">
          <mxGeometry relative="1" as="geometry" />
        </mxCell>
        <mxCell id="0nILQemL-Gzf1Pnsl0-f-11" style="edgeStyle=orthogonalEdgeStyle;rounded=0;orthogonalLoop=1;jettySize=auto;html=1;exitX=0;exitY=0.5;exitDx=0;exitDy=0;entryX=1;entryY=0;entryDx=0;entryDy=0;" edge="1" parent="1" source="0nILQemL-Gzf1Pnsl0-f-8" target="0nILQemL-Gzf1Pnsl0-f-1">
          <mxGeometry relative="1" as="geometry" />
        </mxCell>
        <mxCell id="0nILQemL-Gzf1Pnsl0-f-8" value="prometheus" style="rounded=1;whiteSpace=wrap;html=1;" vertex="1" parent="1">
          <mxGeometry x="640" y="100" width="120" height="60" as="geometry" />
        </mxCell>
        <mxCell id="0nILQemL-Gzf1Pnsl0-f-9" value="influxdb" style="rounded=1;whiteSpace=wrap;html=1;" vertex="1" parent="1">
          <mxGeometry x="640" y="340" width="120" height="60" as="geometry" />
        </mxCell>
        <mxCell id="0nILQemL-Gzf1Pnsl0-f-12" value="" style="rounded=1;whiteSpace=wrap;html=1;" vertex="1" parent="1">
          <mxGeometry x="80" y="230" width="120" height="60" as="geometry" />
        </mxCell>
        <mxCell id="0nILQemL-Gzf1Pnsl0-f-13" value="" style="rounded=1;whiteSpace=wrap;html=1;" vertex="1" parent="1">
          <mxGeometry x="80" y="210" width="120" height="60" as="geometry" />
        </mxCell>
        <mxCell id="0nILQemL-Gzf1Pnsl0-f-4" value="..." style="rounded=1;whiteSpace=wrap;html=1;" vertex="1" parent="1">
          <mxGeometry x="80" y="220" width="120" height="60" as="geometry" />
        </mxCell>
      </root>
    </mxGraphModel>
  </diagram>
</mxfile>
